<svg width="24" height="24" viewBox="0 0 24 24" fill="none" xmlns="http://www.w3.org/2000/svg">
<path d="M14 4C19.523 4 24 8.477 24 14C24 19.523 19.523 24 14 24C8.477 24 4 19.523 4 14C4 8.477 8.477 4 14 4ZM18.004 14.878C17.659 14.353 17.41 13.975 16.462 14.125C14.672 14.409 14.473 14.722 14.388 15.238L14.364 15.394L14.339 15.56C14.242 16.243 14.245 16.501 14.559 16.83C15.824 18.158 16.582 19.115 16.812 19.675C16.924 19.948 17.212 20.775 17.014 21.593C18.2278 21.1095 19.3083 20.3425 20.165 19.356C20.275 18.982 20.355 18.516 20.355 17.952V17.847C20.355 16.925 20.355 16.504 19.703 16.131C19.4935 16.0122 19.2782 15.9037 19.058 15.806C18.691 15.639 18.448 15.53 18.12 15.05C18.0804 14.9933 18.0417 14.936 18.004 14.878ZM14 5.833C11.683 5.833 9.59 6.799 8.104 8.349C8.281 8.472 8.435 8.645 8.541 8.883C8.745 9.34 8.745 9.811 8.745 10.228C8.745 10.556 8.745 10.868 8.85 11.093C8.994 11.401 9.616 11.533 10.165 11.647C10.362 11.689 10.564 11.731 10.748 11.782C11.254 11.922 11.646 12.377 11.959 12.742C12.089 12.893 12.282 13.116 12.379 13.172C12.429 13.136 12.59 12.961 12.669 12.674C12.731 12.454 12.713 12.26 12.624 12.154C12.064 11.494 12.095 10.224 12.268 9.755C12.54 9.016 13.39 9.071 14.012 9.111C14.244 9.126 14.462 9.141 14.626 9.12C15.248 9.042 15.44 8.095 15.575 7.91C15.867 7.51 16.761 6.907 17.315 6.535C16.2715 6.07099 15.142 5.83181 14 5.833Z" fill="white"/>
</svg>
