<svg width="24" height="24" viewBox="0 0 24 24" fill="none" xmlns="http://www.w3.org/2000/svg">
<path d="M1.5 10.98C1.5 12.1 1.83 13.09 2.48 13.97C3.13 14.84 3.98 15.44 5.03 15.76C5.12 15.78 5.2 15.75 5.27 15.68L6.43 14.25C5.54 14.25 4.78 13.93 4.15 13.29C3.52 12.65 3.2 11.88 3.2 10.98C3.2 10.14 3.48 9.4 4.04 8.78C4.6 8.16 5.3 7.81 6.14 7.74L6.67 7.67C6.78 7.67 6.83 7.63 6.83 7.54L6.91 6.99C7.03 5.89 7.5 4.98 8.3 4.26C9.1 3.54 10.05 3.18 11.15 3.18C12.25 3.18 13.21 3.54 14.02 4.27C14.84 5 15.29 5.91 15.39 6.99L15.46 7.57C15.48 7.68 15.56 7.74 15.68 7.74H17.3C18.2 7.74 18.97 8.06 19.6 8.69C20.23 9.32 20.55 10.08 20.55 10.98C20.55 11.81 20.27 12.54 19.71 13.16C19.15 13.78 18.46 14.14 17.64 14.24C17.52 14.24 17.36 14.26 17.15 14.3C16.96 14.32 16.82 14.39 16.74 14.53L14.38 17.32C14.3096 17.4073 14.2589 17.5088 14.2312 17.6175C14.2036 17.7263 14.1998 17.8397 14.22 17.95C14.25 18.19 14.36 18.38 14.53 18.52C14.64 18.64 14.82 18.71 15.09 18.71C15.35 18.71 15.56 18.59 15.7 18.36L17.82 15.92C19.06 15.79 20.11 15.26 20.97 14.31C21.83 13.36 22.25 12.25 22.25 10.98C22.25 10.31 22.12 9.66 21.86 9.05C21.6149 8.46068 21.2584 7.9242 20.81 7.47C20.3558 7.0216 19.8193 6.66508 19.23 6.42C18.62 6.15967 17.9632 6.02695 17.3 6.03H16.98C16.65 4.71 15.94 3.62 14.86 2.77C13.78 1.92 12.54 1.5 11.14 1.5C10.21 1.5 9.33 1.7 8.51 2.1C7.69 2.5 7 3.05 6.43 3.76C5.86 4.47 5.49 5.28 5.3 6.18C4.18 6.43 3.26 7 2.55 7.9C1.85 8.79 1.5 9.82 1.5 10.98ZM4.88 19C4.88 19.06 4.9 19.16 4.94 19.3C5.03 19.51 5.17 19.66 5.38 19.74C5.6 19.84 5.82 19.85 6.05 19.76C6.15492 19.7232 6.2505 19.6638 6.32998 19.5861C6.40946 19.5083 6.47091 19.4141 6.51 19.31C6.61 19.09 6.62 18.88 6.53 18.66C6.4904 18.5585 6.42851 18.4671 6.3489 18.3927C6.26928 18.3183 6.17397 18.2627 6.07 18.23C5.97098 18.1762 5.86104 18.1455 5.74845 18.1403C5.63586 18.1351 5.52356 18.1555 5.42 18.2C5.31595 18.2439 5.22168 18.308 5.1427 18.3887C5.06372 18.4694 5.00161 18.565 4.96 18.67C4.90777 18.7722 4.88036 18.8852 4.88 19ZM6.73 16.56V16.66C6.75 16.89 6.85 17.07 7.03 17.22C7.26 17.35 7.46 17.41 7.65 17.41C7.87 17.41 8.08 17.3 8.26 17.08L10.58 14.31C10.72 14.14 10.79 13.92 10.78 13.65C10.7594 13.4436 10.6589 13.2534 10.5 13.12C10.34 12.98 10.17 12.9 9.98 12.9C9.92 12.9 9.88 12.9 9.84 12.91C9.61 12.95 9.42 13.06 9.28 13.24L6.92 16.01C6.79 16.17 6.73 16.35 6.73 16.56ZM7.5 21.28C7.5 21.4 7.53 21.51 7.58 21.6C7.66 21.81 7.81 21.97 8.02 22.07C8.13 22.12 8.24 22.14 8.35 22.14C8.47 22.14 8.58 22.12 8.66 22.07C8.89 21.98 9.05 21.84 9.13 21.66C9.23 21.44 9.24 21.22 9.15 20.99C9.11637 20.8834 9.05811 20.7862 8.97993 20.7063C8.90175 20.6263 8.80585 20.566 8.7 20.53C8.59598 20.4798 8.48256 20.4521 8.36713 20.4487C8.2517 20.4453 8.13683 20.4661 8.03 20.51C7.8 20.6 7.65 20.75 7.58 20.96C7.52 21.05 7.5 21.16 7.5 21.28ZM9.17 18.93V19.04C9.19 19.26 9.3 19.44 9.48 19.59C9.66 19.74 9.85 19.81 10.03 19.81C10.26 19.81 10.46 19.7 10.66 19.48L15.01 14.24C15.12 14.12 15.18 13.94 15.18 13.72V13.6C15.16 13.37 15.06 13.2 14.91 13.07C14.76 12.94 14.58 12.87 14.39 12.87H14.26C14.03 12.88 13.84 12.99 13.71 13.18L9.36 18.38C9.22 18.56 9.17 18.74 9.17 18.93ZM12.68 20.08C12.68 20.17 12.7 20.27 12.74 20.38C12.83 20.6 12.98 20.76 13.2 20.85C13.34 20.89 13.44 20.91 13.51 20.91C13.65 20.91 13.77 20.88 13.85 20.83C14.07 20.74 14.23 20.6 14.31 20.41C14.41 20.24 14.42 20.02 14.33 19.74C14.2917 19.6399 14.2327 19.5489 14.1569 19.4731C14.0811 19.3973 13.9901 19.3383 13.89 19.3L13.53 19.21C13.44 19.23 13.34 19.25 13.21 19.28C12.99 19.36 12.84 19.51 12.76 19.72C12.71 19.85 12.68 19.97 12.68 20.08Z" fill="white"/>
</svg>
